<svg width="75" height="75" viewBox="0 0 75 75" fill="none" xmlns="http://www.w3.org/2000/svg">
<g id="dollar 1" clip-path="url(#clip0_1_54)">
<path id="Vector" d="M37.6465 0C17.0364 0 0 16.7432 0 37.3535C0 57.9639 17.0364 75 37.6465 75C58.2565 75 75 57.9639 75 37.3535C75 16.7432 58.2565 0 37.6465 0Z" fill="#FFD931"/>
<path id="Vector_2" d="M75 37.3535C75 57.9639 58.2565 75 37.6465 75V0C58.2565 0 75 16.7432 75 37.3535Z" fill="#FFCC33"/>
<path id="Vector_3" d="M37.6465 8.78906C21.9138 8.78906 8.78906 21.6209 8.78906 37.3535C8.78906 53.0861 21.9138 66.2109 37.6465 66.2109C53.3792 66.2109 66.2109 53.0861 66.2109 37.3535C66.2109 21.6209 53.3792 8.78906 37.6465 8.78906Z" fill="#FEA832"/>
<path id="Vector_4" d="M66.2109 37.3535C66.2109 53.0861 53.3792 66.2109 37.6465 66.2109V8.78906C53.3792 8.78906 66.2109 21.6209 66.2109 37.3535Z" fill="#FE9923"/>
<path id="Vector_5" d="M42.041 35.1562H39.8438V26.3672H42.041C43.2716 26.3672 44.2383 27.3338 44.2383 28.5645C44.2383 31.4647 48.6328 31.4647 48.6328 28.5645C48.6328 24.9168 45.6888 21.9727 42.041 21.9727H39.8438V19.7754C39.8438 18.325 38.7451 17.5781 37.6465 17.5781C36.5479 17.5781 35.4492 18.325 35.4492 19.7754V21.9727H32.959C29.3112 21.9727 26.3672 24.9168 26.3672 28.5645V32.959C26.3672 36.6066 29.3112 39.5508 32.959 39.5508H35.4492V48.6328H32.959C31.7284 48.6328 30.7617 47.6662 30.7617 46.4355C30.7617 43.5353 26.3672 43.5353 26.3672 46.4355C26.3672 50.0832 29.3112 53.0273 32.959 53.0273H35.4492V55.2246C35.4492 56.6749 36.5479 57.4219 37.6465 57.4219C38.7451 57.4219 39.8438 56.6749 39.8438 55.2246V53.0273H42.041C45.6888 53.0273 48.6328 50.0832 48.6328 46.4355V41.748C48.6328 38.1004 45.6888 35.1562 42.041 35.1562ZM35.4492 35.1562H32.959C31.7284 35.1562 30.7617 34.1896 30.7617 32.959V28.5645C30.7617 27.3338 31.7284 26.3672 32.959 26.3672H35.4492V35.1562ZM44.2383 46.4355C44.2383 47.6662 43.2716 48.6328 42.041 48.6328H39.8438V39.5508H42.041C43.2716 39.5508 44.2383 40.5174 44.2383 41.748V46.4355Z" fill="#FFD931"/>
<path id="Vector_6" d="M42.041 35.1562H39.8438V26.3672H42.041C43.2716 26.3672 44.2383 27.3338 44.2383 28.5645C44.2383 31.4647 48.6328 31.4647 48.6328 28.5645C48.6328 24.9168 45.6888 21.9727 42.041 21.9727H39.8438V19.7754C39.8438 18.325 38.7451 17.5781 37.6465 17.5781V57.4219C38.7451 57.4219 39.8438 56.6749 39.8438 55.2246V53.0273H42.041C45.6888 53.0273 48.6328 50.0832 48.6328 46.4355V41.748C48.6328 38.1004 45.6888 35.1562 42.041 35.1562ZM44.2383 46.4355C44.2383 47.6662 43.2716 48.6328 42.041 48.6328H39.8438V39.5508H42.041C43.2716 39.5508 44.2383 40.5174 44.2383 41.748V46.4355Z" fill="#FFCC33"/>
</g>
<defs>
<clipPath id="clip0_1_54">
<rect width="75" height="75" fill="white"/>
</clipPath>
</defs>
</svg>
