<svg width="82" height="82" viewBox="0 0 82 82" fill="none" xmlns="http://www.w3.org/2000/svg">
<g id="charity 1" clip-path="url(#clip0_1_97)">
<g id="Group">
<path id="Vector" d="M41.7592 14.0593C41.5125 13.9771 41.2557 14.0587 40.9991 14.0582C40.743 14.0575 40.4874 13.9749 40.2414 14.0571L11.4116 23.6684V28.2243L40.239 37.8334C40.4853 37.9156 40.7433 37.9577 40.9991 37.9577C41.2549 37.9577 41.5129 37.9154 41.7592 37.8334L70.5866 28.2243V23.6684L41.7592 14.0593Z" fill="#D36E00"/>
<path id="Vector_2" d="M70.5875 28.224V23.6681L41.7601 14.059C41.5134 13.9768 41.2566 14.0584 41 14.0579V37.9576C41.2558 37.9576 41.5138 37.9153 41.7601 37.8333L70.5875 28.224Z" fill="#FF9100"/>
<path id="Vector_3" d="M41.0002 33.9527H9.77051V69.3471C9.77051 70.3817 10.4321 71.2991 11.4127 71.6251L40.2401 81.2343C40.4864 81.3164 40.7444 81.3585 41.0002 81.3585C41.2559 81.3585 41.514 81.3163 41.7603 81.2343L70.5877 71.6251C71.5683 71.2991 72.2299 70.3817 72.2299 69.3471V33.9527H41.0002Z" fill="#FED330"/>
<path id="Vector_4" d="M70.5875 71.625C71.5681 71.2989 72.2297 70.3816 72.2297 69.347V33.9527H41V81.3585C41.2558 81.3585 41.5138 81.3163 41.7601 81.2343L70.5875 71.625Z" fill="#FDB500"/>
<g id="Group_2">
<path id="Vector_5" d="M47.0063 0.641785C44.6737 0.641785 42.6146 1.54408 41.0006 3.26219C39.3866 1.54408 37.3275 0.641785 34.9949 0.641785C30.2802 0.641785 26.5869 4.34034 26.5869 9.06195C26.5869 14.055 30.7062 17.2643 36.4071 21.7061C37.3953 22.476 38.4169 23.2719 39.5 24.1384C39.9386 24.4892 40.4697 24.6648 41.0006 24.6648C41.5315 24.6648 42.0626 24.4892 42.5012 24.1384C43.5843 23.2719 44.606 22.476 45.5941 21.7061C51.2952 17.2643 55.4143 14.055 55.4143 9.06195C55.4143 4.34034 51.721 0.641785 47.0063 0.641785Z" fill="#FF5E95"/>
</g>
<path id="Vector_6" d="M42.5006 24.1383C43.5837 23.2719 44.6053 22.476 45.5935 21.7061C51.2946 17.2643 55.4137 14.0552 55.4137 9.06195C55.4137 4.34034 51.7204 0.641785 47.0057 0.641785C44.6731 0.641785 42.614 1.54408 41 3.26219V24.6646C41.5309 24.6648 42.062 24.4894 42.5006 24.1383Z" fill="#E63950"/>
<path id="Vector_7" d="M81.5956 39.0272L71.8263 24.6135C71.2233 23.7103 70.0903 23.3139 69.0674 23.6681L41.0001 33.0239L12.9329 23.6681C11.903 23.3163 10.7723 23.7104 10.174 24.6135L0.404692 39.0272C-0.48143 40.3589 0.157257 42.1471 1.64331 42.6377L30.6309 52.2468C31.651 52.5899 32.7859 52.2069 33.3898 51.3014L41.0002 39.8859L48.6107 51.3014C49.2151 52.2079 50.3506 52.5897 51.3696 52.2468L80.3571 42.6377C81.8458 42.1462 82.4798 40.356 81.5956 39.0272Z" fill="#FFE470"/>
<path id="Vector_8" d="M51.3694 52.2468L80.3569 42.6377C81.8457 42.1462 82.4797 40.356 81.5955 39.0272L71.8263 24.6135C71.2233 23.7103 70.0902 23.3139 69.0673 23.6681L41 33.0239V39.8859L48.6104 51.3014C49.2148 52.2079 50.3503 52.5897 51.3694 52.2468Z" fill="#FED330"/>
</g>
</g>
<defs>
<clipPath id="clip0_1_97">
<rect width="82" height="82" fill="white"/>
</clipPath>
</defs>
</svg>
